<?xml version="1.0" standalone="no"?>
<!DOCTYPE svg PUBLIC "-//W3C//DTD SVG 20010904//EN"
 "http://www.w3.org/TR/2001/REC-SVG-20010904/DTD/svg10.dtd">
<svg version="1.0" xmlns="http://www.w3.org/2000/svg"
 width="256.000000pt" height="256.000000pt" viewBox="0 0 256.000000 256.000000"
 preserveAspectRatio="xMidYMid meet">

<g transform="translate(0.000000,256.000000) scale(0.100000,-0.100000)"
fill="#000000" stroke="none">
<path d="M1468 2533 c6 -2 18 -2 25 0 6 3 1 5 -13 5 -14 0 -19 -2 -12 -5z"/>
<path d="M1605 2496 c140 -46 224 -87 334 -161 141 -94 174 -129 201 -209 12
-37 20 -69 18 -72 -3 -2 -20 2 -39 10 -129 53 -373 61 -514 16 -103 -33 -193
-81 -276 -149 -85 -68 -156 -140 -122 -122 30 15 119 14 151 -3 15 -8 37 -25
48 -38 12 -12 103 -165 203 -338 162 -282 181 -319 181 -360 0 -58 -27 -108
-78 -144 l-41 -29 -403 -1 -403 -1 -90 28 c-182 58 -320 143 -446 273 -107
112 -166 205 -225 359 -18 48 -23 54 -24 31 -1 -76 59 -231 128 -332 45 -67
154 -175 224 -222 67 -46 157 -87 236 -108 37 -9 68 -18 70 -20 2 -1 -33 -146
-78 -323 l-81 -322 23 -19 c74 -61 265 -152 413 -196 75 -22 115 -28 237 -32
288 -9 500 54 749 219 272 183 469 483 536 817 21 104 23 354 4 451 -36 185
-95 330 -195 481 -176 264 -422 442 -726 526 -123 35 -131 29 -15 -10z m-359
-1851 c4 -8 3 -26 0 -40 -6 -23 -11 -25 -61 -25 l-55 0 0 -122 c0 -68 -4 -128
-8 -134 -12 -18 -50 -26 -72 -14 -19 10 -20 20 -20 140 l0 130 -59 0 c-51 0
-61 3 -66 20 -3 11 -3 29 0 40 6 19 15 20 171 20 137 0 166 -3 170 -15z m252
-74 l62 -84 0 75 c0 86 10 101 62 96 l33 -3 3 -167 c2 -161 2 -167 -19 -178
-37 -20 -63 -3 -124 81 l-60 81 -3 -59 c-1 -32 -4 -68 -7 -79 -6 -26 -47 -39
-75 -24 -19 10 -20 22 -20 174 0 89 3 166 7 170 4 4 23 6 43 4 31 -3 42 -12
98 -87z"/>
</g>
</svg>
